<svg width="108" height="33" viewBox="0 0 108 33" fill="none" xmlns="http://www.w3.org/2000/svg">
<path d="M22.1661 11.5937H23.4305L24.0018 9.84698H26.5164L27.0877 11.5937H28.3567L25.9404 4.83643H24.5824L22.1661 11.5937ZM25.2474 6.0399H25.2755L26.212 8.91511H24.3061L25.2474 6.0399Z" fill="white"/>
<path d="M29.5368 11.5937H30.7543L31.7283 7.96451H31.7517L32.7304 11.5937H33.9573L35.3013 6.62993H34.1493L33.3111 10.4417H33.283L32.3137 6.62993H31.1945L30.2252 10.4417H30.2017L29.3635 6.62993H28.1928L29.5368 11.5937Z" fill="white"/>
<path d="M37.2071 11.6779C37.8627 11.6779 38.4153 11.3501 38.7009 10.8304H38.729V11.5937H39.8951V8.17992C39.8951 7.18249 39.0943 6.52691 37.8534 6.52691C36.5937 6.52691 35.8304 7.18718 35.7602 8.06753L35.7555 8.12373H36.8372L36.8466 8.08158C36.9215 7.71633 37.2587 7.45878 37.8112 7.45878C38.4013 7.45878 38.729 7.76316 38.729 8.26421V8.60605L37.4319 8.68566C36.2285 8.76058 35.5448 9.28974 35.5448 10.1701V10.1795C35.5448 11.0645 36.2144 11.6779 37.2071 11.6779ZM36.7061 10.1326V10.1279C36.7061 9.7346 37.0198 9.48641 37.5958 9.44895L38.729 9.37871V9.75333C38.729 10.3434 38.2233 10.7882 37.5537 10.7882C37.0433 10.7882 36.7061 10.54 36.7061 10.1326Z" fill="white"/>
<path d="M40.8363 11.5937H42.0023V8.71376C42.0023 7.97856 42.4003 7.5618 43.0606 7.5618C43.2573 7.5618 43.4352 7.58989 43.5336 7.62736V6.57373C43.4446 6.55032 43.3088 6.52691 43.1636 6.52691C42.5923 6.52691 42.1802 6.88748 42.0257 7.48687H42.0023V6.62993H40.8363V11.5937Z" fill="white"/>
<path d="M45.7906 11.692C46.5071 11.692 47.055 11.3361 47.336 10.7508H47.3641V11.5937H48.5301V4.83643H47.3641V7.48219H47.336C47.055 6.88748 46.4884 6.52691 45.786 6.52691C44.5403 6.52691 43.7396 7.5056 43.7396 9.10711V9.11179C43.7396 10.7086 44.5357 11.692 45.7906 11.692ZM46.1419 10.7086C45.3926 10.7086 44.929 10.0999 44.929 9.11179V9.10711C44.929 8.11905 45.3973 7.51029 46.1419 7.51029C46.8583 7.51029 47.3641 8.13778 47.3641 9.10711V9.11179C47.3641 10.0858 46.863 10.7086 46.1419 10.7086Z" fill="white"/>
<path d="M52.9646 11.5937H54.1306L55.4933 6.747H55.5214L56.8841 11.5937H58.0501L59.8623 4.83643H58.6074L57.432 9.93596H57.4086L56.0553 4.83643H54.9595L53.6062 9.93596H53.5828L52.4074 4.83643H51.1524L52.9646 11.5937Z" fill="white"/>
<path d="M61.1595 5.91815C61.5247 5.91815 61.8057 5.62782 61.8057 5.28129C61.8057 4.9254 61.5247 4.63976 61.1595 4.63976C60.7942 4.63976 60.5086 4.9254 60.5086 5.28129C60.5086 5.62782 60.7942 5.91815 61.1595 5.91815ZM60.5741 11.5937H61.7401V6.62993H60.5741V11.5937Z" fill="white"/>
<path d="M62.7329 11.5937H63.8989V8.71376C63.8989 7.99729 64.325 7.51029 64.9946 7.51029C65.6596 7.51029 65.9874 7.90832 65.9874 8.61542V11.5937H67.1534V8.38128C67.1534 7.22932 66.5306 6.52691 65.4395 6.52691C64.6856 6.52691 64.1798 6.87343 63.9223 7.40727H63.8989V6.62993H62.7329V11.5937Z" fill="white"/>
<path d="M68.0899 11.5937H69.256V8.71376C69.256 7.99729 69.6821 7.51029 70.3517 7.51029C71.0167 7.51029 71.3445 7.90832 71.3445 8.61542V11.5937H72.5105V8.38128C72.5105 7.22932 71.8877 6.52691 70.7966 6.52691C70.0427 6.52691 69.5369 6.87343 69.2794 7.40727H69.256V6.62993H68.0899V11.5937Z" fill="white"/>
<path d="M74.0651 5.91815C74.4304 5.91815 74.7114 5.62782 74.7114 5.28129C74.7114 4.9254 74.4304 4.63976 74.0651 4.63976C73.6999 4.63976 73.4142 4.9254 73.4142 5.28129C73.4142 5.62782 73.6999 5.91815 74.0651 5.91815ZM73.4798 11.5937H74.6458V6.62993H73.4798V11.5937Z" fill="white"/>
<path d="M75.6386 11.5937H76.8046V8.71376C76.8046 7.99729 77.2307 7.51029 77.9003 7.51029C78.5653 7.51029 78.8931 7.90832 78.8931 8.61542V11.5937H80.0591V8.38128C80.0591 7.22932 79.4363 6.52691 78.3452 6.52691C77.5913 6.52691 77.0855 6.87343 76.828 7.40727H76.8046V6.62993H75.6386V11.5937Z" fill="white"/>
<path d="M83.234 13.331C84.6716 13.331 85.5754 12.577 85.5754 11.4532V6.62993H84.4094V7.47282H84.3813C84.1003 6.90153 83.5571 6.52691 82.8547 6.52691C81.5997 6.52691 80.7896 7.49156 80.7896 9.06028V9.06496C80.7896 10.6103 81.5903 11.5656 82.836 11.5656C83.5477 11.5656 84.1097 11.2284 84.3859 10.6992H84.4094V11.4157C84.4094 12.0479 83.9926 12.4506 83.234 12.4506C82.6252 12.4506 82.2272 12.2352 82.1008 11.9495L82.0867 11.9121H80.9394L80.9488 11.9542C81.0893 12.7316 81.9181 13.331 83.234 13.331ZM83.2012 10.6665C82.452 10.6665 81.979 10.0624 81.979 9.08369V9.07901C81.979 8.11436 82.452 7.51029 83.2012 7.51029C83.9224 7.51029 84.414 8.12373 84.414 9.08369V9.08838C84.414 10.053 83.927 10.6665 83.2012 10.6665Z" fill="white"/>
<path d="M20.588 23.0639H21.754L23.1167 18.2172H23.1448L24.5075 23.0639H25.6735L27.4857 16.3067H26.2308L25.0554 21.4062H25.032L23.6787 16.3067H22.5829L21.2296 21.4062H21.2062L20.0308 16.3067H18.7758L20.588 23.0639Z" fill="white"/>
<path d="M29.8037 23.1622C31.1008 23.1622 31.8313 22.3943 31.9859 21.631L31.9999 21.5795H30.9088L30.8995 21.6122C30.7871 21.9447 30.4078 22.2538 29.8271 22.2538C29.0685 22.2538 28.5909 21.7387 28.5721 20.8677H32.0467V20.4931C32.0467 18.9946 31.1664 17.9971 29.7475 17.9971C28.3286 17.9971 27.4155 19.0273 27.4155 20.5914V20.5961C27.4155 22.1742 28.3146 23.1622 29.8037 23.1622ZM29.7616 18.9103C30.3797 18.9103 30.8292 19.3036 30.9135 20.0903H28.5862C28.6798 19.327 29.1434 18.9103 29.7616 18.9103Z" fill="white"/>
<path d="M35.5729 23.1622C36.8278 23.1622 37.6239 22.1788 37.6239 20.582V20.5773C37.6239 18.9758 36.8232 17.9971 35.5775 17.9971C34.8751 17.9971 34.3085 18.3577 34.0276 18.9524H33.9995V16.3067H32.8335V23.0639H33.9995V22.221H34.0276C34.3085 22.8063 34.8564 23.1622 35.5729 23.1622ZM35.2217 22.1788C34.5005 22.1788 33.9995 21.556 33.9995 20.582V20.5773C33.9995 19.608 34.5052 18.9805 35.2217 18.9805C35.9662 18.9805 36.4345 19.5893 36.4345 20.5773V20.582C36.4345 21.5701 35.9709 22.1788 35.2217 22.1788Z" fill="white"/>
<path d="M40.3118 23.1622C41.5293 23.1622 42.3956 22.5347 42.3956 21.5982V21.5935C42.3956 20.8724 41.9976 20.4696 40.9721 20.2402L40.1432 20.0576C39.6281 19.9405 39.4361 19.7532 39.4361 19.4675V19.4628C39.4361 19.0976 39.7593 18.8588 40.2744 18.8588C40.8176 18.8588 41.136 19.1491 41.1875 19.5471L41.1922 19.5846H42.2786L42.2739 19.5331C42.2317 18.6761 41.5106 17.9971 40.2744 17.9971C39.0756 17.9971 38.2842 18.6106 38.2842 19.519V19.5237C38.2842 20.2589 38.7618 20.7225 39.7124 20.9332L40.5366 21.1159C41.0517 21.2329 41.225 21.4015 41.225 21.7012V21.7059C41.225 22.0711 40.8831 22.3006 40.3165 22.3006C39.7265 22.3006 39.4034 22.0477 39.3144 21.6216L39.305 21.5795H38.1577L38.1624 21.6216C38.2655 22.5441 39.01 23.1622 40.3118 23.1622Z" fill="white"/>
<path d="M43.7583 17.3884C44.1236 17.3884 44.4045 17.0981 44.4045 16.7515C44.4045 16.3956 44.1236 16.11 43.7583 16.11C43.3931 16.11 43.1074 16.3956 43.1074 16.7515C43.1074 17.0981 43.3931 17.3884 43.7583 17.3884ZM43.173 23.0639H44.339V18.1002H43.173V23.0639Z" fill="white"/>
<path d="M47.1767 23.1622C47.4109 23.1622 47.6169 23.1388 47.7527 23.1201V22.2444C47.6731 22.2491 47.5841 22.2631 47.4718 22.2631C47.0456 22.2631 46.8302 22.1086 46.8302 21.6216V18.9993H47.7527V18.1002H46.8302V16.8405H45.6455V18.1002H44.9431V18.9993H45.6455V21.7199C45.6455 22.7408 46.1372 23.1622 47.1767 23.1622Z" fill="white"/>
<path d="M50.642 23.1622C51.9391 23.1622 52.6696 22.3943 52.8241 21.631L52.8382 21.5795H51.7471L51.7377 21.6122C51.6254 21.9447 51.2461 22.2538 50.6654 22.2538C49.9068 22.2538 49.4291 21.7387 49.4104 20.8677H52.885V20.4931C52.885 18.9946 52.0047 17.9971 50.5858 17.9971C49.1669 17.9971 48.2538 19.0273 48.2538 20.5914V20.5961C48.2538 22.1742 49.1529 23.1622 50.642 23.1622ZM50.5998 18.9103C51.218 18.9103 51.6675 19.3036 51.7518 20.0903H49.4245C49.5181 19.327 49.9817 18.9103 50.5998 18.9103Z" fill="white"/>
<path d="M55.6759 23.0639H58.1438C60.1667 23.0639 61.3561 21.8089 61.3561 19.6689V19.6595C61.3561 17.5242 60.1574 16.3067 58.1438 16.3067H55.6759V23.0639ZM56.8841 22.043V17.3275H58.0173C59.3613 17.3275 60.1246 18.1564 60.1246 19.6642V19.6736C60.1246 21.2142 59.3753 22.043 58.0173 22.043H56.8841Z" fill="white"/>
<path d="M64.3812 23.1622C65.6783 23.1622 66.4088 22.3943 66.5634 21.631L66.5774 21.5795H65.4863L65.477 21.6122C65.3646 21.9447 64.9853 22.2538 64.4046 22.2538C63.646 22.2538 63.1684 21.7387 63.1496 20.8677H66.6242V20.4931C66.6242 18.9946 65.7439 17.9971 64.325 17.9971C62.9061 17.9971 61.993 19.0273 61.993 20.5914V20.5961C61.993 22.1742 62.8921 23.1622 64.3812 23.1622ZM64.3391 18.9103C64.9572 18.9103 65.4067 19.3036 65.491 20.0903H63.1637C63.2573 19.327 63.7209 18.9103 64.3391 18.9103Z" fill="white"/>
<path d="M69.3168 23.1622C70.5343 23.1622 71.4007 22.5347 71.4007 21.5982V21.5935C71.4007 20.8724 71.0026 20.4696 69.9771 20.2402L69.1482 20.0576C68.6331 19.9405 68.4411 19.7532 68.4411 19.4675V19.4628C68.4411 19.0976 68.7643 18.8588 69.2794 18.8588C69.8226 18.8588 70.141 19.1491 70.1925 19.5471L70.1972 19.5846H71.2836L71.2789 19.5331C71.2368 18.6761 70.5156 17.9971 69.2794 17.9971C68.0806 17.9971 67.2892 18.6106 67.2892 19.519V19.5237C67.2892 20.2589 67.7668 20.7225 68.7174 20.9332L69.5416 21.1159C70.0567 21.2329 70.23 21.4015 70.23 21.7012V21.7059C70.23 22.0711 69.8881 22.3006 69.3215 22.3006C68.7315 22.3006 68.4084 22.0477 68.3194 21.6216L68.31 21.5795H67.1628L67.1674 21.6216C67.2705 22.5441 68.015 23.1622 69.3168 23.1622Z" fill="white"/>
<path d="M72.7633 17.3884C73.1286 17.3884 73.4096 17.0981 73.4096 16.7515C73.4096 16.3956 73.1286 16.11 72.7633 16.11C72.3981 16.11 72.1124 16.3956 72.1124 16.7515C72.1124 17.0981 72.3981 17.3884 72.7633 17.3884ZM72.178 23.0639H73.344V18.1002H72.178V23.0639Z" fill="white"/>
<path d="M76.5751 24.8012C78.0127 24.8012 78.9165 24.0473 78.9165 22.9234V18.1002H77.7505V18.9431H77.7224C77.4414 18.3718 76.8982 17.9971 76.1958 17.9971C74.9408 17.9971 74.1307 18.9618 74.1307 20.5305V20.5352C74.1307 22.0805 74.9315 23.0358 76.1771 23.0358C76.8888 23.0358 77.4508 22.6986 77.7271 22.1695H77.7505V22.8859C77.7505 23.5181 77.3337 23.9208 76.5751 23.9208C75.9663 23.9208 75.5683 23.7054 75.4419 23.4198L75.4278 23.3823H74.2806L74.2899 23.4245C74.4304 24.2018 75.2592 24.8012 76.5751 24.8012ZM76.5423 22.1367C75.7931 22.1367 75.3201 21.5326 75.3201 20.5539V20.5492C75.3201 19.5846 75.7931 18.9805 76.5423 18.9805C77.2635 18.9805 77.7552 19.594 77.7552 20.5539V20.5586C77.7552 21.5233 77.2682 22.1367 76.5423 22.1367Z" fill="white"/>
<path d="M79.8718 23.0639H81.0378V20.184C81.0378 19.4675 81.4639 18.9805 82.1335 18.9805C82.7985 18.9805 83.1263 19.3786 83.1263 20.0857V23.0639H84.2923V19.8515C84.2923 18.6996 83.6695 17.9971 82.5784 17.9971C81.8245 17.9971 81.3187 18.3437 81.0612 18.8775H81.0378V18.1002H79.8718V23.0639Z" fill="white"/>
<path d="M87.1675 23.1622C88.385 23.1622 89.2513 22.5347 89.2513 21.5982V21.5935C89.2513 20.8724 88.8533 20.4696 87.8278 20.2402L86.9989 20.0576C86.4838 19.9405 86.2918 19.7532 86.2918 19.4675V19.4628C86.2918 19.0976 86.6149 18.8588 87.13 18.8588C87.6732 18.8588 87.9917 19.1491 88.0432 19.5471L88.0479 19.5846H89.1343L89.1296 19.5331C89.0874 18.6761 88.3663 17.9971 87.13 17.9971C85.9312 17.9971 85.1399 18.6106 85.1399 19.519V19.5237C85.1399 20.2589 85.6175 20.7225 86.5681 20.9332L87.3923 21.1159C87.9074 21.2329 88.0806 21.4015 88.0806 21.7012V21.7059C88.0806 22.0711 87.7388 22.3006 87.1722 22.3006C86.5822 22.3006 86.259 22.0477 86.1701 21.6216L86.1607 21.5795H85.0134L85.0181 21.6216C85.1211 22.5441 85.8657 23.1622 87.1675 23.1622Z" fill="white"/>
<path d="M99.657 3.04845C98.6614 3.04845 96.8341 1.23463 96.8341 0.246401C96.8341 -0.248604 98.3892 0.155403 99.0583 0.824245C99.708 1.47423 100.132 3.04845 99.657 3.04845Z" fill="white"/>
<path d="M101.084 3.6031C101.06 2.56492 101.186 1.91086 101.502 1.42834C102.04 0.607076 102.304 0.712347 102.698 1.905C103.632 4.73611 99.7916 7.12115 97.5391 5.10876C97.0816 4.69966 96.792 4.2801 96.896 4.1761C97.299 3.77286 99.4503 4.02189 100.172 4.55539C100.568 4.848 100.943 5.0876 101.005 5.0876C101.067 5.0876 101.103 4.41953 101.084 3.6031Z" fill="white"/>
<path d="M102.952 7.62839C102.952 6.61569 103.459 5.06721 104.008 4.40627C104.47 3.84958 104.661 4.00991 104.962 5.20613C105.382 6.8762 104.773 8.2929 103.358 8.93574C102.089 9.51206 101.125 9.54392 100.155 9.04229C99.4103 8.65714 98.3635 7.40306 98.3635 6.89633C98.3635 6.09724 101.612 7.13033 102.234 8.12773C102.731 8.92274 102.952 8.76929 102.952 7.62839Z" fill="white"/>
<path d="M104.129 11.7786C104.389 10.6973 104.928 9.75471 105.692 9.04585C106.621 8.18457 106.918 8.35611 106.827 9.70195C106.693 11.6968 105.683 12.6396 103.417 12.8866C102.386 12.999 101.796 12.9322 101.229 12.6388C100.48 12.2514 99.383 10.8138 99.383 10.2191C99.383 9.36473 102.082 10.4845 102.993 11.7169C103.692 12.6613 103.915 12.6733 104.129 11.7786Z" fill="white"/>
<path d="M101.231 15.9864C100.711 15.499 100.153 14.1177 100.149 13.3079C100.144 12.2692 102.365 13.7588 103.206 15.3586C103.737 16.3674 103.783 16.6081 103.482 16.7964C103.032 17.0788 102.001 16.7082 101.231 15.9864Z" fill="white"/>
<path d="M104.971 14.9727C105.362 14.3573 106.07 13.662 106.547 13.4272C107.666 12.8761 107.795 12.8843 107.795 13.5073C107.795 15.0484 106.383 16.7429 104.9 16.9835L103.971 17.1344L104.012 15.7628C104.04 14.8072 104.084 14.6489 104.157 15.2416L104.262 16.0919L104.971 14.9727Z" fill="white"/>
<path d="M101.937 20.8508C100.63 20.3005 99.8951 19.0991 99.8938 17.5137C99.8926 16.0506 100.229 15.9629 101.359 17.1314C102.231 18.0327 102.952 19.5223 102.952 20.4256C102.952 20.9326 103.06 20.8791 103.933 19.9433C105.164 18.6232 106.441 17.8346 107.348 17.8333C108.188 17.8321 108.185 17.8048 107.519 19.2212C106.87 20.6028 106.06 21.163 104.414 21.37C103.189 21.5239 103.141 21.5622 102.695 22.739C102.443 23.4048 102.277 23.9498 102.328 23.9498C102.378 23.9498 102.827 23.673 103.326 23.3345C104.365 22.6292 106.182 22.2348 106.576 22.6292C106.755 22.8084 106.676 23.1186 106.324 23.6115C105.26 25.1047 104.795 25.3512 103.03 25.3596L101.378 25.3675L100.526 26.5038C99.5745 27.7742 99.5579 28.0044 100.461 27.4128C101.296 26.8658 103.175 26.6478 104.072 26.9942L104.81 27.2789L104.2 27.9327C102.898 29.3263 101.034 29.7043 99.6104 28.8634L98.8669 28.4242L97.7869 29.5261C96.8672 30.4641 96.8015 30.5956 97.3439 30.4113C97.6944 30.292 98.6449 30.2021 99.4559 30.211C100.6 30.2237 101.051 30.3474 101.466 30.7618L102 31.2966L100.901 31.8571C100.067 32.2825 99.5061 32.3891 98.5709 32.2991C97.3115 32.178 96.2132 31.489 96.4201 30.9497C96.4828 30.7865 95.6078 31.2097 94.4756 31.8902C93.3436 32.5705 92.35 33.0538 92.2679 32.9644C92.1858 32.8746 92.2554 32.7523 92.4226 32.6924C92.5898 32.6325 93.6795 31.9501 94.8441 31.1765C98.183 28.9579 101.862 25.0685 100.912 24.7606C100.702 24.6925 100.157 24.2447 99.7016 23.7652C98.965 22.9906 98.8737 22.7334 98.8771 21.4465C98.8827 19.3612 99.1562 19.065 100.122 20.0988C100.952 20.9871 101.411 22.2471 101.433 23.6949L101.446 24.587L102.039 23.44C103.068 21.448 103.063 21.3249 101.937 20.8508Z" fill="white"/>
<path d="M103.893 18.7833C103.828 19.0313 103.771 18.8901 103.766 18.4695C103.761 18.049 103.814 17.8461 103.883 18.0186C103.953 18.1912 103.958 18.5353 103.893 18.7833Z" fill="white"/>
<path d="M103.635 19.9194C103.554 20.1225 103.494 20.0621 103.481 19.7652C103.471 19.4965 103.531 19.3461 103.615 19.4308C103.7 19.5154 103.709 19.7353 103.635 19.9194Z" fill="white"/>
<path d="M97.2807 26.4796C96.7688 25.4771 96.7125 24.3749 97.114 23.2231C97.4904 22.1433 97.9921 22.2124 98.6132 23.4298C99.1628 24.5072 99.3127 26.8342 98.8766 27.5183C98.5388 28.048 97.8534 27.6019 97.2807 26.4796Z" fill="white"/>
<path d="M94.2908 27.544C94.2938 27.1793 94.5176 26.3937 94.7881 25.7978C95.0585 25.2018 95.4059 24.7145 95.5601 24.7145C95.9848 24.7145 96.5792 26.3501 96.5792 27.5183C96.5792 28.088 96.4105 28.9579 96.2045 29.4511C95.8821 30.2225 95.761 30.3114 95.3391 30.0856C94.7924 29.793 94.2821 28.5562 94.2908 27.544Z" fill="white"/>
<path d="M8.38528 3.03245C7.47837 3.03245 8.60908 0.678243 9.73418 0.223512C10.5205 -0.0940862 11.1646 -0.070381 11.1646 0.27653C11.1646 1.12201 9.2379 3.03245 8.38528 3.03245Z" fill="white"/>
<path d="M5.33369 3.66356C5.0268 2.77628 5.0347 2.52724 5.39741 1.66315C5.74483 0.835767 5.87304 0.726673 6.18988 0.989724C6.74504 1.45057 7.09832 2.99447 6.91352 4.15143L6.75166 5.16234L7.68738 4.58424C8.61137 4.01302 10.6969 3.7543 11.1027 4.1601C11.2067 4.26409 10.9171 4.68365 10.4596 5.09275C9.81447 5.66907 9.38166 5.83628 8.53516 5.83628C7.93463 5.83628 7.31523 5.70832 7.15873 5.55182C7.00222 5.39531 6.60663 5.13456 6.27934 4.97219C5.94263 4.80498 5.53225 4.23733 5.33369 3.66356Z" fill="white"/>
<path d="M4.64089 8.91973C3.22164 8.27511 2.61601 6.86095 3.03939 5.17993C3.19844 4.5483 3.45716 4.07037 3.61443 4.11829C4.14741 4.2799 5.04719 6.4335 5.04719 7.54713C5.04719 8.74972 5.26079 8.91795 5.76446 8.11172C6.38717 7.11432 9.63528 6.08123 9.63528 6.88033C9.63528 7.38706 8.58843 8.64113 7.84363 9.02628C6.87325 9.52791 5.90975 9.49605 4.64089 8.91973Z" fill="white"/>
<path d="M1.63823 11.3767C1.21511 10.7017 0.878904 8.99212 1.09913 8.63578C1.3525 8.22566 1.60153 8.33832 2.55713 9.29366C3.11917 9.85571 3.57415 10.6334 3.75029 11.3328C3.90679 11.9548 4.08751 12.4635 4.152 12.4635C4.21649 12.4635 4.77827 11.9545 5.40047 11.3323C6.47357 10.2589 8.10974 9.57864 8.55274 10.0214C8.8446 10.3135 7.75799 12.017 6.95991 12.5191C6.35046 12.9022 5.88783 12.9731 4.69314 12.8658C3.09037 12.7215 2.21327 12.294 1.63823 11.3767Z" fill="white"/>
<path d="M1.62345 16.3677C0.955372 15.8794 0.204199 14.3408 0.204199 13.4607C0.204199 13.0368 0.311765 12.9723 0.777711 13.1171C1.74198 13.4163 2.62901 14.1665 3.1393 15.1137C3.4671 15.7226 3.68937 15.915 3.82242 15.7055C3.93814 15.523 4.02149 15.7509 4.02379 16.2566C4.02761 17.0983 4.00696 17.1151 3.14236 16.9746C2.65552 16.8956 1.97214 16.6226 1.62345 16.3677Z" fill="white"/>
<path d="M4.51624 16.7804C3.98963 16.4506 5.17412 14.3016 6.29566 13.5522C7.78526 12.5566 8.07992 12.7763 7.59511 14.5215C7.19008 15.9798 5.36963 17.3152 4.51624 16.7804Z" fill="white"/>
<path d="M3.94681 15.0604C3.8655 15.2635 3.80509 15.2031 3.79285 14.9062C3.78189 14.6375 3.84205 14.4871 3.92667 14.5718C4.0113 14.6564 4.02047 14.8764 3.94681 15.0604Z" fill="white"/>
<path d="M4.97862 20.4927C5.25671 19.1005 5.6987 18.1706 6.50951 17.2731C7.72485 15.928 8.10617 15.9818 8.1049 17.4977C8.10362 19.0854 7.36825 20.285 6.05886 20.8348C5.50523 21.0672 5.05662 21.3721 5.06172 21.5123C5.06707 21.6525 5.40455 22.398 5.81187 23.1691L6.55259 24.571L6.56585 23.6789C6.58777 22.2308 7.04683 20.9711 7.87677 20.0828C8.84256 19.049 9.11606 19.3452 9.12167 21.4304C9.12498 22.7174 9.03373 22.9746 8.29709 23.7492C7.84134 24.2287 7.29663 24.6765 7.08634 24.7446C6.77792 24.8448 6.84674 25.0747 7.44319 25.936C8.28154 27.1459 11.6533 30.4122 11.8554 30.21C11.9286 30.1369 11.8602 29.7102 11.704 29.2616C11.1529 27.681 11.6342 24.6984 12.4404 24.6984C12.5956 24.6984 12.9586 25.2314 13.2466 25.8829C13.92 27.4052 13.7628 28.8137 12.8085 29.8101L12.1172 30.5314L13.7437 31.5633C14.6383 32.1306 15.4851 32.6379 15.6253 32.6901C15.7655 32.7424 15.807 32.8645 15.7178 32.9613C15.6286 33.0582 14.7219 32.629 13.7031 32.0078L11.8511 30.8786L11.3018 31.5171C10.5047 32.4437 8.57772 32.5963 7.11234 31.8487C6.23907 31.4032 6.08614 31.2273 6.32319 30.9416C7.01879 30.1032 9.19227 29.86 10.7823 30.4427C11.1098 30.5625 10.912 30.2386 10.2297 29.5366L9.16755 28.4439L8.2795 28.8652C6.65863 29.6342 5.09893 29.3079 3.81248 27.9308C3.21985 27.2961 3.21934 27.2887 3.73193 27.0142C4.53714 26.5834 6.1157 26.6876 7.20614 27.2436C7.75212 27.5219 8.22674 27.7212 8.26115 27.6868C8.29581 27.6524 7.94074 27.1128 7.4725 26.4878L6.62116 25.3515L4.91286 25.3436C3.21781 25.3357 3.19717 25.327 2.2069 24.2111C1.18758 23.0628 1.07874 22.593 1.79933 22.4531C2.53826 22.3098 4.24707 22.9172 5.08644 23.6218C5.54117 24.0036 5.84577 24.144 5.76318 23.9338C4.71761 21.2732 4.80886 21.3848 3.68121 21.3838C2.24208 21.3825 1.16286 20.6586 0.500896 19.2501C-0.188338 17.7837 -0.191906 17.816 0.650264 17.8173C1.4932 17.8183 2.92468 18.6383 3.69982 19.5639C4.21649 20.181 4.26696 20.1947 4.29627 19.728C4.31692 19.4025 4.42754 19.5407 4.60265 20.1104C4.81498 20.8014 4.89986 20.8875 4.97862 20.4927Z" fill="white"/>
<path d="M4.20425 18.7673C4.13951 19.0153 4.08241 18.8741 4.07731 18.4535C4.07222 18.033 4.12498 17.8301 4.19482 18.0026C4.26466 18.1752 4.269 18.5193 4.20425 18.7673Z" fill="white"/>
<path d="M9.59552 27.7042C8.74443 27.8678 8.60168 24.9503 9.38548 23.4138C9.66893 22.8586 10.0589 22.4044 10.2526 22.4044C10.6956 22.4044 11.1646 23.7153 11.1646 24.9536C11.1646 25.9882 10.2585 27.5765 9.59552 27.7042Z" fill="white"/>
</svg>
