<svg width="32" height="32" viewBox="0 0 32 32" fill="none" xmlns="http://www.w3.org/2000/svg">
<rect width="32" height="32" rx="16" fill="#000111"/>
<path fill-rule="evenodd" clip-rule="evenodd" d="M12.2558 7.04403C10.3731 7.97585 9.39813 9.54799 9.39813 11.6517C9.39813 13.3872 9.75283 14.319 10.8874 15.5644C11.4369 16.1678 11.5056 16.4399 11.1896 16.7559C10.5462 17.3994 10.6985 19.2647 11.4497 19.9444C11.8897 20.3427 13.1043 20.6625 14.9897 20.8763C20.6276 21.5159 20.8324 21.5577 21.0459 22.1137C21.175 22.4505 20.9533 22.9064 20.4694 23.2984C19.272 24.2678 14.174 24.2212 13.1848 23.2321C12.7976 22.8449 12.5846 22.3614 12.711 22.1573C13.0183 21.6596 12.2071 21.184 11.0387 21.1774C10.3773 21.174 10.0768 21.3556 10.0492 21.7767C9.84746 24.8405 11.7881 26.0137 17.0364 25.9999C21.6824 25.9878 23.726 24.7116 23.4922 21.969C23.3264 20.028 22.3213 19.5113 17.8598 19.0734C14.1636 18.7108 12.8446 18.2231 13.3496 17.4063C13.478 17.198 14.4351 17.0278 15.4764 17.0278C17.8353 17.0278 19.7718 16.0939 20.7737 14.4727C21.1799 13.8154 21.794 11.7902 22.1379 9.97211L22.7641 6.66654H21.4344C20.3672 6.66654 20.1047 6.79363 20.1047 7.31031C20.1047 7.91368 20.0039 7.90298 18.4922 7.13763C16.4597 6.10876 14.2137 6.07491 12.2558 7.04403ZM18.2207 9.58667C19.7797 11.1457 19.2206 13.6027 17.1055 14.4861C14.6568 15.5095 12.1611 14.139 12.1611 11.7712C12.1611 9.77214 13.3378 8.73878 15.6149 8.73878C17.0212 8.73878 17.5427 8.90836 18.2207 9.58667Z" fill="white"/>
</svg>
