<svg width="19" height="27" viewBox="0 0 19 27" fill="none" xmlns="http://www.w3.org/2000/svg">
<path fill-rule="evenodd" clip-rule="evenodd" d="M3.82886 0.942212C1.30636 2.19073 0 4.2972 0 7.11586C0 9.44122 0.475252 10.6897 1.99541 12.3584C2.73166 13.1669 2.82375 13.5315 2.40032 13.955C1.53821 14.8171 1.74228 17.3164 2.74878 18.2271C3.33833 18.7607 4.96585 19.1892 7.49204 19.4757C15.0461 20.3327 15.3205 20.3887 15.6065 21.1337C15.7796 21.5849 15.4825 22.1957 14.8342 22.721C13.2298 24.0199 6.39901 23.9575 5.07367 22.6321C4.55492 22.1134 4.2694 21.4655 4.43877 21.192C4.85062 20.5252 3.76361 19.888 2.1981 19.8792C1.31192 19.8745 0.909319 20.118 0.872298 20.6821C0.602048 24.7872 3.20228 26.3592 10.2343 26.3407C16.4594 26.3245 19.1975 24.6146 18.8842 20.9398C18.6621 18.3391 17.3155 17.6468 11.3376 17.0601C6.38513 16.5742 4.61786 15.9207 5.29441 14.8263C5.46656 14.5473 6.74885 14.3191 8.14407 14.3191C11.3047 14.3191 13.8994 13.0678 15.2418 10.8957C15.786 10.015 16.6088 7.30142 17.0697 4.86547L17.9087 0.436418H16.1271C14.6972 0.436418 14.3455 0.606713 14.3455 1.299C14.3455 2.10744 14.2104 2.09309 12.1849 1.06762C9.46154 -0.310935 6.45223 -0.356286 3.82886 0.942212ZM11.8211 4.34903C13.91 6.43792 13.1608 9.72998 10.3269 10.9137C7.04595 12.2849 3.70206 10.4486 3.70206 7.27597C3.70206 4.59753 5.27867 3.21296 8.32963 3.21296C10.214 3.21296 10.9127 3.44018 11.8211 4.34903Z" fill="white"/>
</svg>
