<svg width="256" height="256" viewBox="0 0 256 256" fill="none" xmlns="http://www.w3.org/2000/svg">
<rect width="256" height="256" fill="#000111"/>
<path fill-rule="evenodd" clip-rule="evenodd" d="M107.264 82.6322C97.9405 87.247 93.112 95.0328 93.112 105.451C93.112 114.046 94.8686 118.661 100.487 124.828C103.209 127.817 103.549 129.164 101.984 130.729C98.7975 133.916 99.5518 143.154 103.272 146.52C105.451 148.492 111.467 150.076 120.804 151.135C148.725 154.303 149.739 154.509 150.796 157.263C151.436 158.931 150.338 161.189 147.941 163.13C142.011 167.931 116.764 167.7 111.865 162.802C109.948 160.884 108.892 158.49 109.518 157.479C111.041 155.014 107.023 152.659 101.237 152.626C97.9611 152.609 96.473 153.509 96.3362 155.594C95.3373 170.767 104.948 176.577 130.94 176.509C153.948 176.449 164.069 170.129 162.911 156.547C162.09 146.934 157.113 144.375 135.017 142.206C116.712 140.41 110.18 137.995 112.681 133.95C113.317 132.919 118.057 132.076 123.214 132.076C134.896 132.076 144.486 127.451 149.448 119.422C151.46 116.167 154.501 106.137 156.204 97.1332L159.305 80.7627H152.72C147.435 80.7627 146.135 81.3922 146.135 83.951C146.135 86.9391 145.636 86.8861 138.149 83.0958C128.083 78.0004 116.96 77.8328 107.264 82.6322ZM136.805 95.2244C144.526 102.945 141.757 115.113 131.282 119.488C119.155 124.556 106.795 117.77 106.795 106.043C106.795 96.1429 112.623 91.0253 123.9 91.0253C130.865 91.0253 133.447 91.8651 136.805 95.2244Z" fill="white"/>
</svg>
